<svg width="50" height="50" viewBox="0 0 50 50" fill="none" xmlns="http://www.w3.org/2000/svg">
<path d="M10.4167 18.2229C10.4619 19.7329 10.7344 21.2274 11.225 22.6563C12.5348 26.13 15.0195 29.0356 18.2479 30.8688L20.0896 31.9771C21.5722 32.8613 23.2664 33.3281 24.9927 33.3281C26.719 33.3281 28.4132 32.8613 29.8958 31.9771L31.5625 30.975C33.7092 29.7623 35.5448 28.0673 36.9244 26.0239C38.304 23.9804 39.19 21.6444 39.5125 19.2C39.5597 18.7306 39.5833 18.2569 39.5833 17.7792C39.567 15.898 39.151 14.0419 38.363 12.3337C37.575 10.6254 36.4329 9.10423 35.0125 7.87083C32.2644 5.48309 28.7467 4.16774 25.1062 4.16667C24.3962 4.15231 23.6861 4.18851 22.9812 4.275C19.5082 4.57199 16.2779 6.17814 13.9449 8.76801C11.6118 11.3579 10.3506 14.7378 10.4167 18.2229ZM32.25 10.9958C33.2344 11.8324 34.0269 12.8714 34.5734 14.042C35.1199 15.2126 35.4075 16.4873 35.4167 17.7792C35.4167 18.1229 35.4 18.4667 35.3687 18.8063C35.1663 20.3137 34.6611 21.7646 33.8834 23.0717C33.1058 24.3789 32.0719 25.5153 30.8437 26.4125C32.1056 23.8369 32.7178 20.9916 32.6271 18.125C32.4774 15.1185 31.6147 12.1907 30.1104 9.58333C30.8812 9.96382 31.602 10.4383 32.2562 10.9958H32.25ZM25 9.375C27.0404 11.9228 28.251 15.0348 28.4687 18.2917C28.5022 21.8434 27.2729 25.2914 25 28.0208C22.7914 25.4165 21.5792 22.1126 21.5792 18.6979C21.5792 15.2832 22.7914 11.9794 25 9.375ZM19.95 9.48333C18.4116 12.1161 17.5278 15.0797 17.3729 18.125C17.2845 20.9953 17.9004 23.8435 19.1667 26.4208C17.3589 25.1499 15.9708 23.3694 15.1792 21.3063C14.8211 20.2727 14.6202 19.1912 14.5833 18.0979C14.5401 16.295 15.0244 14.5188 15.9767 12.9873C16.9289 11.4558 18.3077 10.2358 19.9437 9.47708L19.95 9.48333ZM18.75 37.5H31.25V43.75C31.25 44.3025 31.0305 44.8324 30.6398 45.2231C30.2491 45.6138 29.7192 45.8333 29.1667 45.8333H20.8333C20.2808 45.8333 19.7509 45.6138 19.3602 45.2231C18.9695 44.8324 18.75 44.3025 18.75 43.75V37.5Z" fill="#0953AD"/>
</svg>
