<svg width="50" height="50" viewBox="0 0 50 50" fill="none" xmlns="http://www.w3.org/2000/svg">
<path d="M10.4166 45.8333H39.5833C41.2409 45.8333 42.8306 45.1749 44.0027 44.0028C45.1748 42.8307 45.8333 41.2409 45.8333 39.5833V18.75C45.8333 17.0924 45.1748 15.5027 44.0027 14.3306C42.8306 13.1585 41.2409 12.5 39.5833 12.5H35.4166V8.33333C35.4166 7.22826 34.9776 6.16845 34.1962 5.38705C33.4148 4.60565 32.355 4.16666 31.25 4.16666H18.75C17.6449 4.16666 16.5851 4.60565 15.8037 5.38705C15.0223 6.16845 14.5833 7.22826 14.5833 8.33333V12.5H10.4166C8.75902 12.5 7.16931 13.1585 5.99721 14.3306C4.82511 15.5027 4.16663 17.0924 4.16663 18.75V39.5833C4.16663 41.2409 4.82511 42.8307 5.99721 44.0028C7.16931 45.1749 8.75902 45.8333 10.4166 45.8333ZM18.75 8.33333H31.25V12.5H18.75V8.33333ZM8.33329 18.75C8.33329 18.1975 8.55279 17.6676 8.94349 17.2769C9.33419 16.8862 9.86409 16.6667 10.4166 16.6667H39.5833C40.1358 16.6667 40.6657 16.8862 41.0564 17.2769C41.4471 17.6676 41.6666 18.1975 41.6666 18.75V21.5625L25 28.9708L8.33329 21.5625V18.75ZM8.33329 26.1229L24.1541 33.1542C24.4204 33.2725 24.7086 33.3336 25 33.3336C25.2914 33.3336 25.5795 33.2725 25.8458 33.1542L41.6666 26.1229V39.5833C41.6666 40.1359 41.4471 40.6658 41.0564 41.0565C40.6657 41.4472 40.1358 41.6667 39.5833 41.6667H10.4166C9.86409 41.6667 9.33419 41.4472 8.94349 41.0565C8.55279 40.6658 8.33329 40.1359 8.33329 39.5833V26.1229Z" fill="#0953AD"/>
</svg>
