<svg width="32" height="32" viewBox="0 0 32 32" fill="none" xmlns="http://www.w3.org/2000/svg">
<path fill-rule="evenodd" clip-rule="evenodd" d="M14.6666 16C14.6666 16.7364 15.2635 17.3333 15.9999 17.3333C16.7363 17.3333 17.3333 16.7364 17.3333 16C17.3333 15.2636 16.7363 14.6667 15.9999 14.6667C15.2635 14.6667 14.6666 15.2636 14.6666 16Z" stroke="#0953AD"/>
<path fill-rule="evenodd" clip-rule="evenodd" d="M14.6666 7.99999C14.6666 8.73637 15.2635 9.33332 15.9999 9.33332C16.7363 9.33332 17.3333 8.73637 17.3333 7.99999C17.3333 7.26361 16.7363 6.66666 15.9999 6.66666C15.2635 6.66666 14.6666 7.26361 14.6666 7.99999Z" stroke="#0953AD"/>
<path fill-rule="evenodd" clip-rule="evenodd" d="M14.6666 24C14.6666 24.7364 15.2635 25.3333 15.9999 25.3333C16.7363 25.3333 17.3333 24.7364 17.3333 24C17.3333 23.2636 16.7363 22.6667 15.9999 22.6667C15.2635 22.6667 14.6666 23.2636 14.6666 24Z" stroke="#0953AD"/>
</svg>
