<svg width="50" height="50" viewBox="0 0 50 50" fill="none" xmlns="http://www.w3.org/2000/svg">
<path d="M24.9999 2.08334C20.4674 2.08334 16.0367 3.42737 12.2681 5.94549C8.49948 8.46361 5.5622 12.0427 3.82769 16.2302C2.09318 20.4176 1.63935 25.0254 2.5236 29.4708C3.40784 33.9162 5.59045 37.9996 8.7954 41.2045C12.0004 44.4095 16.0837 46.5921 20.5291 47.4763C24.9745 48.3606 29.5823 47.9067 33.7698 46.1722C37.9572 44.4377 41.5363 41.5004 44.0544 37.7318C46.5726 33.9632 47.9166 29.5325 47.9166 25C47.9094 18.9243 45.4927 13.0995 41.1965 8.80339C36.9004 4.50723 31.0756 2.0905 24.9999 2.08334ZM24.9999 43.75C21.2915 43.75 17.6664 42.6503 14.583 40.5901C11.4996 38.5298 9.09633 35.6014 7.67719 32.1753C6.25804 28.7492 5.88673 24.9792 6.6102 21.3421C7.33368 17.7049 9.11944 14.364 11.7417 11.7417C14.3639 9.11951 17.7048 7.33375 21.342 6.61028C24.9791 5.88681 28.7491 6.25812 32.1752 7.67726C35.6014 9.0964 38.5297 11.4996 40.59 14.5831C42.6503 17.6665 43.7499 21.2916 43.7499 25C43.7439 29.9709 41.7665 34.7366 38.2515 38.2516C34.7365 41.7665 29.9709 43.7439 24.9999 43.75ZM37.4999 27.0833C37.4999 30.3985 36.183 33.578 33.8388 35.9222C31.4946 38.2664 28.3151 39.5833 24.9999 39.5833C21.6847 39.5833 18.5053 38.2664 16.1611 35.9222C13.8169 33.578 12.4999 30.3985 12.4999 27.0833C12.4999 26.5308 12.7194 26.0009 13.1101 25.6102C13.5008 25.2195 14.0307 25 14.5833 25C15.1358 25 15.6657 25.2195 16.0564 25.6102C16.4471 26.0009 16.6666 26.5308 16.6666 27.0833C16.6666 29.2935 17.5446 31.4131 19.1074 32.9759C20.6702 34.5387 22.7898 35.4167 24.9999 35.4167C27.2101 35.4167 29.3297 34.5387 30.8925 32.9759C32.4553 31.4131 33.3333 29.2935 33.3333 27.0833C33.3333 26.5308 33.5528 26.0009 33.9435 25.6102C34.3342 25.2195 34.8641 25 35.4166 25C35.9691 25 36.499 25.2195 36.8897 25.6102C37.2804 26.0009 37.4999 26.5308 37.4999 27.0833ZM16.6666 20.8333V18.75C16.6666 18.1975 16.8861 17.6676 17.2768 17.2769C17.6675 16.8862 18.1974 16.6667 18.7499 16.6667C19.3025 16.6667 19.8324 16.8862 20.2231 17.2769C20.6138 17.6676 20.8333 18.1975 20.8333 18.75V20.8333C20.8333 21.3859 20.6138 21.9158 20.2231 22.3065C19.8324 22.6972 19.3025 22.9167 18.7499 22.9167C18.1974 22.9167 17.6675 22.6972 17.2768 22.3065C16.8861 21.9158 16.6666 21.3859 16.6666 20.8333ZM29.1666 20.8333V18.75C29.1666 18.1975 29.3861 17.6676 29.7768 17.2769C30.1675 16.8862 30.6974 16.6667 31.2499 16.6667C31.8025 16.6667 32.3324 16.8862 32.7231 17.2769C33.1138 17.6676 33.3333 18.1975 33.3333 18.75V20.8333C33.3333 21.3859 33.1138 21.9158 32.7231 22.3065C32.3324 22.6972 31.8025 22.9167 31.2499 22.9167C30.6974 22.9167 30.1675 22.6972 29.7768 22.3065C29.3861 21.9158 29.1666 21.3859 29.1666 20.8333Z" fill="white"/>
</svg>
