<svg width="27" height="24" viewBox="0 0 27 24" fill="none" xmlns="http://www.w3.org/2000/svg">
<path d="M11.733 21.9006L11.7323 21.9C8.28877 18.8369 5.47146 16.3303 3.50902 13.9768C1.552 11.6298 0.5 9.49798 0.5 7.19346C0.5 3.4503 3.49369 0.5 7.33333 0.5C9.5055 0.5 11.5954 1.49431 12.9558 3.06129L13.3333 3.49623L13.7109 3.06129C15.0712 1.49431 17.1612 0.5 19.3333 0.5C23.173 0.5 26.1667 3.4503 26.1667 7.19346C26.1667 9.49799 25.1147 11.6298 23.1575 13.9786C21.1999 16.3279 18.3917 18.8312 14.9597 21.8904L14.935 21.9124L14.934 21.9134L13.3346 23.3308L11.733 21.9006Z" fill="white" stroke="#0953AD"/>
</svg>
