<svg width="24" height="24" viewBox="0 0 24 24" fill="none" xmlns="http://www.w3.org/2000/svg">
<path d="M2.16811 10.555C2.09526 10.4457 2.04466 10.3231 2.0192 10.1942C1.99374 10.0653 1.99393 9.9327 2.01975 9.8039C2.04556 9.6751 2.0965 9.55264 2.16966 9.44353C2.24282 9.33442 2.33676 9.24079 2.44611 9.168L11.4461 3.168C11.6104 3.05836 11.8036 2.99985 12.0011 2.99985C12.1987 2.99985 12.3918 3.05836 12.5561 3.168L21.5561 9.168C21.7348 9.28712 21.8703 9.46058 21.9427 9.66272C22.0152 9.86486 22.0206 10.0849 21.9582 10.2904C21.8959 10.4959 21.769 10.6758 21.5965 10.8036C21.4239 10.9314 21.2148 11.0003 21.0001 11H19.0001V20C19.0001 20.2652 18.8948 20.5196 18.7072 20.7071C18.5197 20.8946 18.2653 21 18.0001 21H6.00011C5.73489 21 5.48054 20.8946 5.293 20.7071C5.10547 20.5196 5.00011 20.2652 5.00011 20V11H3.00011L3.01911 10.981C2.85277 10.988 2.68737 10.9526 2.53849 10.8781C2.38961 10.8036 2.26215 10.6924 2.16811 10.555Z" fill="white"/>
</svg>
