<svg width="24" height="24" viewBox="0 0 24 24" fill="none" xmlns="http://www.w3.org/2000/svg">
<path d="M21.5552 8.168L12.5552 2.168C12.3909 2.05841 12.1977 1.99996 12.0002 2C11.803 2.00015 11.6103 2.0586 11.4462 2.168L2.4462 8.168C2.2677 8.28703 2.1322 8.46031 2.05974 8.66225C1.98728 8.8642 1.98168 9.08409 2.04379 9.28946C2.10589 9.49482 2.23239 9.67477 2.40462 9.80272C2.57684 9.93067 2.78565 9.99983 3.0002 10H4.0002V21C4.0002 21.2652 4.10556 21.5196 4.29309 21.7071C4.48063 21.8946 4.73498 22 5.0002 22H19.0002C19.2654 22 19.5198 21.8946 19.7073 21.7071C19.8948 21.5196 20.0002 21.2652 20.0002 21V10H21.0002C21.2149 10.0003 21.424 9.93141 21.5966 9.80361C21.7691 9.67582 21.896 9.49588 21.9583 9.29041C22.0207 9.08495 22.0153 8.86486 21.9428 8.66272C21.8704 8.46058 21.7348 8.28712 21.5562 8.168H21.5552ZM18.0002 20H6.0002V8.2L12.0002 4.2L18.0002 8.2V20Z" fill="white"/>
</svg>
