<svg width="72" height="71" viewBox="0 0 72 71" fill="none" xmlns="http://www.w3.org/2000/svg">
<g clip-path="url(#clip0_113_1810)">
<path d="M32.4646 10.6066L39.5356 3.53554L66.0522 30.052C67.4587 31.4586 68.2489 33.3662 68.2489 35.3553C68.2489 37.3445 67.4587 39.2521 66.0522 40.6586L41.3034 65.4074C39.8969 66.8139 37.9892 67.6041 36.0001 67.6041C34.011 67.6041 32.1033 66.8139 30.6968 65.4074L0.644775 35.3553L28.929 7.07108L32.4646 10.6066ZM36.0001 14.1421L58.9811 37.1231C59.4499 37.592 60.0858 37.8553 60.7489 37.8553C61.4119 37.8553 62.0478 37.592 62.5166 37.1231C62.9855 36.6543 63.2489 36.0184 63.2489 35.3553C63.2489 34.6923 62.9855 34.0564 62.5166 33.5876L39.5356 10.6066L36.0001 14.1421ZM7.71584 35.3553L34.2323 61.8719C34.7012 62.3407 35.3371 62.6041 36.0001 62.6041C36.6632 62.6041 37.299 62.3407 37.7679 61.8719L57.5138 42.1259C56.7456 41.7586 56.0461 41.2623 55.4455 40.6586L28.929 14.1421L7.71584 35.3553ZM25.3935 45.9619L39.5356 31.8198L43.0712 35.3553L28.929 49.4975L25.3935 45.9619ZM32.4646 53.033L46.6067 38.8909L50.1422 42.4264L36.0001 56.5685L32.4646 53.033ZM14.7869 35.3553L28.929 21.2132L36.0001 28.2843L21.858 42.4264L14.7869 35.3553Z" fill="#0953AD"/>
</g>
<defs>
<clipPath id="clip0_113_1810">
<rect width="50" height="50" fill="white" transform="translate(0.644775 35.3553) rotate(-45)"/>
</clipPath>
</defs>
</svg>
