<svg width="50" height="50" viewBox="0 0 50 50" fill="none" xmlns="http://www.w3.org/2000/svg">
<path d="M24.9999 2.08334C20.4674 2.08334 16.0367 3.42737 12.2681 5.94549C8.49948 8.46361 5.5622 12.0427 3.82769 16.2302C2.09318 20.4176 1.63935 25.0254 2.5236 29.4708C3.40784 33.9162 5.59045 37.9996 8.7954 41.2045C12.0004 44.4095 16.0837 46.5921 20.5291 47.4763C24.9745 48.3606 29.5823 47.9067 33.7698 46.1722C37.9572 44.4377 41.5363 41.5004 44.0544 37.7318C46.5726 33.9632 47.9166 29.5325 47.9166 25C47.9094 18.9243 45.4927 13.0995 41.1965 8.80339C36.9004 4.50723 31.0756 2.0905 24.9999 2.08334ZM6.37285 27.0833H12.5562C12.6773 32.1485 13.9648 37.1175 16.3187 41.6042C13.6008 40.1804 11.2731 38.1125 9.53928 35.5811C7.80545 33.0497 6.71827 30.1321 6.37285 27.0833ZM12.5562 22.9167H6.37285C6.71827 19.8679 7.80545 16.9503 9.53928 14.4189C11.2731 11.8876 13.6008 9.81956 16.3187 8.39584C13.9648 12.8825 12.6773 17.8515 12.5562 22.9167ZM22.9166 43.0542C19.9103 41.1042 17.1353 35.15 16.7208 27.0833H22.9166V43.0542ZM22.9166 22.9167H16.7208C17.1353 14.85 19.9103 8.89584 22.9166 6.94584V22.9167ZM27.0833 43.0542V27.0833H33.2791C32.8645 35.15 30.0895 41.1042 27.0833 43.0542ZM27.0833 22.9167V6.94584C30.0895 8.89584 32.8645 14.85 33.2791 22.9167H27.0833ZM33.6812 41.6042C36.0351 37.1175 37.3226 32.1485 37.4437 27.0833H43.627C43.2816 30.1321 42.1944 33.0497 40.4606 35.5811C38.7268 38.1125 36.3991 40.1804 33.6812 41.6042ZM37.4437 22.9167C37.3226 17.8515 36.0351 12.8825 33.6812 8.39584C36.3991 9.81956 38.7268 11.8876 40.4606 14.4189C42.1944 16.9503 43.2816 19.8679 43.627 22.9167H37.4437Z" fill="#0953AD"/>
</svg>
