<svg width="24" height="24" viewBox="0 0 24 24" fill="none" xmlns="http://www.w3.org/2000/svg">
<path d="M12 11C12.9889 11 13.9556 10.7068 14.7779 10.1573C15.6001 9.60794 16.241 8.82705 16.6194 7.91342C16.9978 6.99979 17.0969 5.99446 16.9039 5.02455C16.711 4.05465 16.2348 3.16373 15.5355 2.46447C14.8363 1.76521 13.9454 1.289 12.9755 1.09608C12.0055 0.90315 11.0002 1.00217 10.0866 1.3806C9.17295 1.75904 8.39206 2.39991 7.84265 3.22215C7.29324 4.0444 7 5.0111 7 6C7.00159 7.3256 7.52888 8.59644 8.46622 9.53378C9.40356 10.4711 10.6744 10.9984 12 11ZM12 3C12.5933 3 13.1734 3.17595 13.6667 3.50559C14.1601 3.83524 14.5446 4.30377 14.7716 4.85195C14.9987 5.40013 15.0581 6.00333 14.9424 6.58527C14.8266 7.16722 14.5409 7.70177 14.1213 8.12132C13.7018 8.54088 13.1672 8.8266 12.5853 8.94236C12.0033 9.05811 11.4001 8.9987 10.8519 8.77164C10.3038 8.54458 9.83524 8.16006 9.50559 7.66671C9.17595 7.17337 9 6.59335 9 6C9 5.20435 9.31607 4.44129 9.87868 3.87868C10.4413 3.31607 11.2044 3 12 3ZM4 23H20C20.2652 23 20.5196 22.8946 20.7071 22.7071C20.8946 22.5196 21 22.2652 21 22V18C20.9984 16.6744 20.4711 15.4036 19.5338 14.4662C18.5964 13.5289 17.3256 13.0016 16 13H8C6.67441 13.0016 5.40356 13.5289 4.46622 14.4662C3.52888 15.4036 3.00159 16.6744 3 18V22C3 22.2652 3.10536 22.5196 3.29289 22.7071C3.48043 22.8946 3.73478 23 4 23ZM5 18C5 17.2044 5.31607 16.4413 5.87868 15.8787C6.44129 15.3161 7.20435 15 8 15H16C16.7956 15 17.5587 15.3161 18.1213 15.8787C18.6839 16.4413 19 17.2044 19 18V21H5V18Z" fill="white"/>
<path d="M5 18C5 17.2044 5.31607 16.4413 5.87868 15.8787C6.44129 15.3161 7.20435 15 8 15H16C16.7956 15 17.5587 15.3161 18.1213 15.8787C18.6839 16.4413 19 17.2044 19 18V21H5V18Z" fill="white"/>
<path d="M12 3C12.5933 3 13.1734 3.17595 13.6667 3.50559C14.1601 3.83524 14.5446 4.30377 14.7716 4.85195C14.9987 5.40013 15.0581 6.00333 14.9424 6.58527C14.8266 7.16722 14.5409 7.70177 14.1213 8.12132C13.7018 8.54088 13.1672 8.8266 12.5853 8.94236C12.0033 9.05811 11.4001 8.9987 10.8519 8.77164C10.3038 8.54458 9.83524 8.16006 9.50559 7.66671C9.17595 7.17337 9 6.59335 9 6C9 5.20435 9.31607 4.44129 9.87868 3.87868C10.4413 3.31607 11.2044 3 12 3Z" fill="white"/>
</svg>
