<svg width="24" height="24" viewBox="0 0 24 24" fill="none" xmlns="http://www.w3.org/2000/svg">
<path d="M3.62398 15.0001C5.00872 16.3867 6.85275 17.2192 8.80868 17.3406C10.7646 17.462 12.6974 16.8639 14.243 15.6591L19.561 20.9771C19.7496 21.1592 20.0022 21.26 20.2644 21.2577C20.5266 21.2555 20.7774 21.1503 20.9628 20.9649C21.1482 20.7795 21.2534 20.5287 21.2557 20.2665C21.2579 20.0043 21.1571 19.7517 20.975 19.5631L15.657 14.2451C16.9153 12.6302 17.5102 10.5962 17.3204 8.55783C17.1305 6.51945 16.1703 4.63025 14.6355 3.27552C13.1006 1.92079 11.1068 1.20257 9.06065 1.26733C7.01447 1.3321 5.07007 2.17497 3.62398 3.62406C2.87678 4.37088 2.28405 5.2576 1.87964 6.23357C1.47524 7.20954 1.26709 8.25562 1.26709 9.31206C1.26709 10.3685 1.47524 11.4146 1.87964 12.3905C2.28405 13.3665 2.87678 14.2532 3.62398 15.0001ZM5.03798 5.04006C6.02656 4.0515 7.32731 3.4363 8.71861 3.29925C10.1099 3.16221 11.5057 3.51181 12.6681 4.28848C13.8306 5.06515 14.6878 6.22085 15.0937 7.55867C15.4996 8.89649 15.4291 10.3337 14.8941 11.6253C14.3592 12.917 13.393 13.9832 12.1601 14.6423C10.9272 15.3015 9.50391 15.5128 8.13271 15.2402C6.7615 14.9676 5.52723 14.228 4.64018 13.1474C3.75313 12.0668 3.26819 10.7121 3.26798 9.31406C3.26524 8.51963 3.42029 7.73257 3.72413 6.99854C4.02798 6.26451 4.47456 5.59813 5.03798 5.03806V5.04006Z" fill="white"/>
<path d="M5.03798 5.04006C6.02656 4.0515 7.32731 3.4363 8.71861 3.29925C10.1099 3.16221 11.5057 3.51181 12.6681 4.28848C13.8306 5.06515 14.6878 6.22085 15.0937 7.55867C15.4996 8.89649 15.4291 10.3337 14.8941 11.6253C14.3592 12.917 13.393 13.9832 12.1601 14.6423C10.9272 15.3015 9.50391 15.5128 8.13271 15.2402C6.7615 14.9676 5.52723 14.228 4.64018 13.1474C3.75313 12.0668 3.26819 10.7121 3.26798 9.31406C3.26524 8.51963 3.42029 7.73257 3.72413 6.99854C4.02798 6.26451 4.47456 5.59813 5.03798 5.03806V5.04006Z" fill="white"/>
</svg>
