<svg width="50" height="50" viewBox="0 0 50 50" fill="none" xmlns="http://www.w3.org/2000/svg">
<path d="M45.8333 6.25H39.5833V4.16667C39.5833 3.61413 39.3638 3.08423 38.9731 2.69353C38.5824 2.30283 38.0525 2.08333 37.4999 2.08333H12.4999C11.9474 2.08333 11.4175 2.30283 11.0268 2.69353C10.6361 3.08423 10.4166 3.61413 10.4166 4.16667V6.25H4.16659C3.61405 6.25 3.08415 6.46949 2.69345 6.86019C2.30275 7.25089 2.08325 7.7808 2.08325 8.33333V12.5C2.0908 14.9948 2.99454 17.4038 4.62974 19.2879C6.26494 21.1721 8.52273 22.4059 10.9916 22.7646C11.7695 25.4611 13.308 27.8762 15.4229 29.721C17.5377 31.5658 20.1395 32.7621 22.9166 33.1667V37.5H14.5833C14.1458 37.4999 13.7195 37.6375 13.3646 37.8932C13.0097 38.149 12.7444 38.51 12.6062 38.925L10.5228 45.175C10.4185 45.4882 10.3901 45.8217 10.44 46.148C10.4898 46.4743 10.6165 46.7841 10.8096 47.0519C11.0027 47.3196 11.2566 47.5377 11.5505 47.688C11.8444 47.8384 12.1698 47.9167 12.4999 47.9167H37.4999C37.8298 47.9164 38.155 47.8378 38.4486 47.6873C38.7422 47.5368 38.9959 47.3187 39.1887 47.051C39.3816 46.7833 39.5081 46.4737 39.5578 46.1475C39.6076 45.8213 39.5792 45.488 39.4749 45.175L37.3916 38.925C37.2535 38.5103 36.9884 38.1496 36.634 37.8939C36.2796 37.6381 35.8537 37.5003 35.4166 37.5H27.0833V33.1667C29.8604 32.7621 32.4621 31.5658 34.577 29.721C36.6919 27.8762 38.2303 25.4611 39.0083 22.7646C41.4771 22.4059 43.7349 21.1721 45.3701 19.2879C47.0053 17.4038 47.909 14.9948 47.9166 12.5V8.33333C47.9166 7.7808 47.6971 7.25089 47.3064 6.86019C46.9157 6.46949 46.3858 6.25 45.8333 6.25ZM10.4166 18.3937C9.19886 17.9613 8.14473 17.1627 7.39876 16.1075C6.65279 15.0523 6.25149 13.7922 6.24992 12.5V10.4167H10.4166V18.3937ZM33.9145 41.6667L34.6082 43.75H15.3895L16.0853 41.6667H33.9145ZM35.4166 18.75C35.4166 21.5127 34.3191 24.1622 32.3656 26.1157C30.4121 28.0692 27.7626 29.1667 24.9999 29.1667C22.2372 29.1667 19.5877 28.0692 17.6342 26.1157C15.6807 24.1622 14.5833 21.5127 14.5833 18.75V6.25H35.4166V18.75ZM43.7499 12.5C43.7483 13.7922 43.347 15.0523 42.6011 16.1075C41.8551 17.1627 40.801 17.9613 39.5833 18.3937V10.4167H43.7499V12.5ZM22.2228 18.0562L18.7499 15.1917L22.9166 14.5833L24.9999 10.4167L27.0833 14.5833L31.2499 15.1917L27.777 18.0562L28.8624 22.9167L24.9999 20.1396L21.1374 22.9167L22.2228 18.0562Z" fill="#0953AD"/>
</svg>
