<svg width="50" height="50" viewBox="0 0 50 50" fill="none" xmlns="http://www.w3.org/2000/svg">
<path d="M12.5001 35.4167C12.4916 32.7107 13.3697 30.0764 15.0001 27.9167C15.3316 27.4746 15.8251 27.1824 16.3721 27.1043C16.9191 27.0261 17.4747 27.1685 17.9167 27.5C18.3588 27.8315 18.651 28.3251 18.7291 28.872C18.8073 29.419 18.6649 29.9746 18.3334 30.4167C17.4048 31.6547 16.8394 33.1269 16.7004 34.6683C16.5614 36.2096 16.8544 37.7592 17.5465 39.1434C18.2386 40.5277 19.3025 41.6918 20.619 42.5054C21.9354 43.319 23.4525 43.75 25.0001 43.75C26.5477 43.75 28.0647 43.319 29.3812 42.5054C30.6976 41.6918 31.7615 40.5277 32.4536 39.1434C33.1457 37.7592 33.4387 36.2096 33.2997 34.6683C33.1607 33.1269 32.5953 31.6547 31.6667 30.4167C31.5026 30.1978 31.3831 29.9487 31.3152 29.6837C31.2473 29.4187 31.2323 29.1429 31.271 28.872C31.3097 28.6012 31.4013 28.3406 31.5407 28.1052C31.6801 27.8698 31.8645 27.6641 32.0834 27.5C32.3023 27.3358 32.5513 27.2164 32.8163 27.1485C33.0814 27.0806 33.3572 27.0656 33.628 27.1043C33.8989 27.143 34.1594 27.2346 34.3948 27.374C34.6303 27.5134 34.8359 27.6978 35.0001 27.9167C36.6305 30.0764 37.5086 32.7107 37.5001 35.4167C37.5001 38.7319 36.1831 41.9113 33.8389 44.2555C31.4947 46.5997 28.3153 47.9167 25.0001 47.9167C21.6849 47.9167 18.5054 46.5997 16.1612 44.2555C13.817 41.9113 12.5001 38.7319 12.5001 35.4167ZM25.0001 37.5C25.5526 37.5 26.0825 37.2805 26.4732 36.8898C26.8639 36.4991 27.0834 35.9692 27.0834 35.4167V9.19583L31.8605 13.9729C32.2534 14.3524 32.7797 14.5624 33.3259 14.5576C33.8721 14.5529 34.3947 14.3338 34.7809 13.9475C35.1672 13.5613 35.3863 13.0387 35.3911 12.4925C35.3958 11.9463 35.1858 11.42 34.8063 11.0271L26.473 2.69374C26.0823 2.30318 25.5525 2.08377 25.0001 2.08377C24.4476 2.08377 23.9178 2.30318 23.5271 2.69374L15.1938 11.0271C14.9948 11.2193 14.8361 11.4491 14.7269 11.7033C14.6177 11.9575 14.5603 12.2309 14.5579 12.5075C14.5555 12.7841 14.6082 13.0584 14.7129 13.3145C14.8177 13.5705 14.9724 13.8031 15.168 13.9987C15.3636 14.1943 15.5962 14.349 15.8522 14.4538C16.1083 14.5585 16.3826 14.6113 16.6592 14.6088C16.9359 14.6064 17.2092 14.549 17.4634 14.4398C17.7176 14.3306 17.9475 14.1719 18.1396 13.9729L22.9167 9.19583V35.4167C22.9167 35.9692 23.1362 36.4991 23.5269 36.8898C23.9176 37.2805 24.4475 37.5 25.0001 37.5Z" fill="white"/>
</svg>
