<svg width="50" height="50" viewBox="0 0 50 50" fill="none" xmlns="http://www.w3.org/2000/svg">
<path d="M45.8333 4.16667H4.16659C3.61405 4.16667 3.08415 4.38616 2.69345 4.77686C2.30275 5.16756 2.08325 5.69747 2.08325 6.25V35.4167C2.08325 35.9692 2.30275 36.4991 2.69345 36.8898C3.08415 37.2805 3.61405 37.5 4.16659 37.5H22.9166V41.6667H16.6666C16.114 41.6667 15.5841 41.8862 15.1934 42.2769C14.8027 42.6676 14.5833 43.1975 14.5833 43.75C14.5833 44.3025 14.8027 44.8324 15.1934 45.2231C15.5841 45.6138 16.114 45.8333 16.6666 45.8333H33.3333C33.8858 45.8333 34.4157 45.6138 34.8064 45.2231C35.1971 44.8324 35.4166 44.3025 35.4166 43.75C35.4166 43.1975 35.1971 42.6676 34.8064 42.2769C34.4157 41.8862 33.8858 41.6667 33.3333 41.6667H27.0833V37.5H45.8333C46.3858 37.5 46.9157 37.2805 47.3064 36.8898C47.6971 36.4991 47.9166 35.9692 47.9166 35.4167V6.25C47.9166 5.69747 47.6971 5.16756 47.3064 4.77686C46.9157 4.38616 46.3858 4.16667 45.8333 4.16667ZM43.7499 33.3333H6.24992V8.33333H43.7499V33.3333Z" fill="#0953AD"/>
</svg>
